<?xml version="1.0" encoding="utf-8"?>
<!-- Generator: Adobe Illustrator 21.1.0, SVG Export Plug-In . SVG Version: 6.00 Build 0)  -->
<svg version="1.1" id="Layer_1" xmlns="http://www.w3.org/2000/svg" xmlns:xlink="http://www.w3.org/1999/xlink" x="0px" y="0px"
	 viewBox="0 0 461 107" style="enable-background:new 0 0 461 107;" xml:space="preserve">
<style type="text/css">
	.st0{fill:#0075C9;}
	.st1{fill:#6D6E71;}
	.st2{fill:#808285;}
</style>
<title>Final Logo</title>
<g>
	<g>
		<path class="st0" d="M232.4,70.8c-2.1,2-5.1,3.3-8.4,3.3c-6.8,0-11.8-4.8-11.8-12.2c0-7.2,4.7-12.3,11.8-12.3
			c2.7,0,5.3,0.9,7.4,2.5h9.7c-3.4-6-9.7-9.9-17.1-9.9c-9.4,0-17.3,6.2-19.2,15.3V19.8h-32.6v50.1c-0.1-7.3-6.4-9.5-11.9-11.5
			c-4.8-1.6-9.1-2.7-9.1-5.6c0-2.6,2.4-4,5.8-4c2.6,0,5,1.2,6.4,3.4h8.2c-1.8-5.8-7.3-9.9-14.3-9.9c-8,0-13.9,5.1-13.9,11
			c0,6.6,5.6,8.9,10.1,10.5c5.3,1.9,10.8,3.2,10.8,6.8c0,2.5-2.3,4.4-6.1,4.4c-3.4,0-6.2-1.6-7.6-4h-7.3c0-0.3,0.1-0.5,0.1-0.8
			c0-7.4-6.4-9.7-11.9-11.7c-4.8-1.6-9.1-2.7-9.1-5.6c0-2.6,2.4-4,5.8-4c2.6,0,5,1.2,6.4,3.4h8.2c-1.8-5.8-7.3-9.9-14.3-9.9
			c-8,0-13.8,5.1-13.8,11c0,6.6,5.6,8.9,10.1,10.5c5.3,1.9,10.8,3.2,10.8,6.8c0,2.5-2.3,4.4-6.1,4.4c-3.4,0-6.2-1.6-7.6-4h-8.2
			c2.1,6.5,7.5,10.8,15.2,10.8c7.5,0,12.9-3.6,14.2-9c2.5,5.5,7.6,9,14.6,9c8.6,0,14.4-4.7,14.5-11.5V89h32.6V66.3
			c1.9,9.1,9.8,15.3,19.2,15.3c7.8,0,14.5-4.3,17.7-10.8C241.7,70.8,232.4,70.8,232.4,70.8z M197.6,76.9l-4.3-4.3v0.1
			c-2.2,2-4.7,3.3-7.7,3.3c-4.7,0-8.2-2.8-8.2-7.3c0-3.3,1.9-5.6,5.3-7.1c-1.4-1.9-2.1-3.4-2.1-5.3c0-3.4,2.7-6.4,7.3-6.4
			c4,0,6.7,2.7,6.7,6.2c0,3.4-2.2,5.3-5.6,6.6l1.6,1.7h6.9V76.9z"/>
		<path class="st0" d="M181.8,68.6c0,2.2,1.8,3.7,4.3,3.7c1.7,0,3.3-0.8,4.8-2.2l0,0l-5.7-5.7C182.8,65.4,181.8,66.9,181.8,68.6z"/>
		<path class="st0" d="M190.7,56.3c0-1.8-1.2-2.9-2.9-2.9c-1.8,0-3,1.2-3,3.1c0,1.3,0.5,2.3,1.9,3.8
			C189.3,59.3,190.7,58.1,190.7,56.3z"/>
		<path class="st0" d="M185.2,64.3L185.2,64.3L185.2,64.3z"/>
	</g>
	<polygon class="st1" points="280.4,76.9 280.4,49.9 298.2,49.9 298.2,54.6 285.7,54.6 285.7,61 296.4,61 296.4,65.6 285.7,65.6 
		285.7,72.2 298.2,72.2 298.2,76.9 	"/>
	<polygon class="st1" points="305.4,76.9 305.4,72.6 316.9,54.6 305.8,54.6 305.8,49.9 323.1,49.9 323.1,54 311.5,72.2 323.1,72.2 
		323.1,76.9 	"/>
	<polygon class="st1" points="328.7,76.9 328.7,49.9 346.5,49.9 346.5,54.6 334,54.6 334,61 344.6,61 344.6,65.6 334,65.6 334,72.2 
		346.5,72.2 346.5,76.9 	"/>
	<polygon class="st2" points="261.4,42.1 261.4,81.6 260.7,81.6 260.7,42.1 	"/>
</g>
</svg>
