<svg id="ux-eze-logo" viewBox="-190 -190 400 400" width="150" height="150" version="1.1" xmlns="http://www.w3.org/2000/svg" xmlns:xlink="http://www.w3.org/1999/xlink">
  <g stroke="none" stroke-width="1" fill="none" fill-rule="evenodd" transform="translate(-121.000000, -120.000000)">
    <!-- logo -->
    <g id="eze-logo" transform="translate(24.000000, 23.000000)">
      <g id="eze-fill" stroke="none" fill="#fff">
				<circle id="Oval-1" cx="117" cy="117" r="125"></circle>
      </g>
      <!-- bottom -->
      <g id="eze-bottom-fill">
        <path class="eze-bottom" id="bottom" fill="#374C59" stroke="#374C59" d="M82.3,64.8 L48.9,64.8 C33.7,64.8 21.1,75.3 17.5,89.4 L96.2,89.4 L96.2,105 L17.5,105 C21,119.1 33.7,129.6 48.9,129.6 L98.2,129.6 L146,64.8 L82.3,64.8 L82.3,64.8 Z M185,185.5 L151.6,185.5 L72.3,185.5 C69.3,185.5 66.7,183.8 65.3,181.2 C64,178.6 64.2,175.4 66,173 L86.5,145.2 L48.9,145.2 C24.2,145.2 3.9,126.5 1.2,102.6 C0.6,107.3 0.2,112 0.2,116.9 C0.2,181.4 52.5,233.7 117,233.7 C163.1,233.7 202.8,206.9 221.8,168.2 C213,178.8 199.8,185.5 185,185.5 L185,185.5 Z"></path>
        <!-- <path class="eze&#45;bottom" id="bottom" fill="#374C59" stroke="#374C59" d="M82.3,64.8 L48.9,64.8 C33.7,64.8 21.1,75.3 17.5,89.4 L96.2,89.4 L96.2,105 L17.5,105 C21,119.1 33.7,129.6 48.9,129.6 L98.2,129.6 L146,64.8 L82.3,64.8 L82.3,64.8 Z M185,185.5 L151.6,185.5 L72.3,185.5 C69.3,185.5 66.7,183.8 65.3,181.2 C64,178.6 64.2,175.4 66,173 L86.5,145.2 L48.9,145.2 C24.2,145.2 3.9,126.5 1.2,102.6 C0.6,107.3 0.2,112 0.2,116.9 C0.2,181.4 52.5,233.7 117,233.7 C163.1,233.7 202.8,206.9 221.8,168.2 C213,178.8 199.8,185.5 185,185.5 L185,185.5 Z"></path> -->
      </g>
      <!-- top -->
      <g id="eze-top-fill">
        <path class="eze-top" id="top" fill="#6EACC6" stroke="#6EACC6" d="M117,0.2 C70.4,0.2 30.2,27.6 11.5,67.1 C20.3,56.2 33.8,49.2 48.9,49.2 L82.3,49.2 L161.6,49.2 C164.6,49.2 167.2,50.9 168.6,53.5 C169.9,56.1 169.7,59.3 167.9,61.7 L147.4,89.5 L185,89.5 C209.7,89.5 230.1,108.2 232.7,132.2 C233.3,127.2 233.8,122.2 233.8,117.1 C233.8,52.5 181.5,0.2 117,0.2 L117,0.2 Z M151.6,169.9 L185,169.9 C200.2,169.9 212.9,159.4 216.4,145.3 L137.7,145.3 L137.7,129.7 L216.4,129.7 C212.9,115.6 200.2,105.1 185,105.1 L135.7,105.1 L87.8,170 L151.6,170 L151.6,169.9 L151.6,169.9 Z"></path>
        <!-- <path class="eze&#45;top" id="top" fill="#6EACC6" stroke="#6EACC6" d="M117,0.2 C70.4,0.2 30.2,27.6 11.5,67.1 C20.3,56.2 33.8,49.2 48.9,49.2 L82.3,49.2 L161.6,49.2 C164.6,49.2 167.2,50.9 168.6,53.5 C169.9,56.1 169.7,59.3 167.9,61.7 L147.4,89.5 L185,89.5 C209.7,89.5 230.1,108.2 232.7,132.2 C233.3,127.2 233.8,122.2 233.8,117.1 C233.8,52.5 181.5,0.2 117,0.2 L117,0.2 Z M151.6,169.9 L185,169.9 C200.2,169.9 212.9,159.4 216.4,145.3 L137.7,145.3 L137.7,129.7 L216.4,129.7 C212.9,115.6 200.2,105.1 185,105.1 L135.7,105.1 L87.8,170 L151.6,170 L151.6,169.9 L151.6,169.9 Z"></path> -->
      </g>
    </g>
  </g>
</svg>

